<svg xmlns="http://www.w3.org/2000/svg" width="24" height="24" viewBox="0 0 24 24">
  <g id="menu" transform="translate(643 1998)">
    <g id="base" opacity="0">
      <rect id="Rectangle_982" data-name="Rectangle 982" width="24" height="24" transform="translate(-643 -1998)" fill="#84bd00"/>
      <rect id="Rectangle_983" data-name="Rectangle 983" width="20" height="20" transform="translate(-641 -1996)" fill="#84bd00"/>
    </g>
    <g id="apps" transform="translate(-640 -1995)">
      <path id="Path_44088" data-name="Path 44088" d="M5.241,0H2.995A3,3,0,0,0,0,2.995V5.241A3,3,0,0,0,2.995,8.236H5.241A3,3,0,0,0,8.236,5.241V2.995A3,3,0,0,0,5.241,0Zm1.5,5.241a1.5,1.5,0,0,1-1.5,1.5H2.995a1.5,1.5,0,0,1-1.5-1.5V2.995a1.5,1.5,0,0,1,1.5-1.5H5.241a1.5,1.5,0,0,1,1.5,1.5Z" transform="translate(0 0)" fill="#84bd00"/>
      <path id="Path_44089" data-name="Path 44089" d="M18.241,0H15.995A3,3,0,0,0,13,2.995V5.241a3,3,0,0,0,2.995,2.995h2.246a3,3,0,0,0,2.995-2.995V2.995A3,3,0,0,0,18.241,0Zm1.5,5.241a1.5,1.5,0,0,1-1.5,1.5H15.995a1.5,1.5,0,0,1-1.5-1.5V2.995a1.5,1.5,0,0,1,1.5-1.5h2.246a1.5,1.5,0,0,1,1.5,1.5Z" transform="translate(-3.267 0)" fill="#84bd00"/>
      <path id="Path_44090" data-name="Path 44090" d="M5.241,13H2.995A3,3,0,0,0,0,15.995v2.246a3,3,0,0,0,2.995,2.995H5.241a3,3,0,0,0,2.995-2.995V15.995A3,3,0,0,0,5.241,13Zm1.5,5.241a1.5,1.5,0,0,1-1.5,1.5H2.995a1.5,1.5,0,0,1-1.5-1.5V15.995a1.5,1.5,0,0,1,1.5-1.5H5.241a1.5,1.5,0,0,1,1.5,1.5Z" transform="translate(0 -3.267)" fill="#84bd00"/>
      <path id="Path_44091" data-name="Path 44091" d="M18.241,13H15.995A3,3,0,0,0,13,15.995v2.246a3,3,0,0,0,2.995,2.995h2.246a3,3,0,0,0,2.995-2.995V15.995A3,3,0,0,0,18.241,13Zm1.5,5.241a1.5,1.5,0,0,1-1.5,1.5H15.995a1.5,1.5,0,0,1-1.5-1.5V15.995a1.5,1.5,0,0,1,1.5-1.5h2.246a1.5,1.5,0,0,1,1.5,1.5Z" transform="translate(-3.267 -3.267)" fill="#84bd00"/>
    </g>
  </g>
</svg>
