<svg xmlns="http://www.w3.org/2000/svg" width="14.891" height="21.508" viewBox="0 0 14.891 21.508">
  <g id="microphone-black-shape" transform="translate(-73.087)">
    <g id="Group_12" data-name="Group 12" transform="translate(73.087)">
      <path id="Path_556" data-name="Path 556" d="M150.315,14.89a4.147,4.147,0,0,0,4.136-4.136V4.136a3.982,3.982,0,0,0-1.215-2.921,4.119,4.119,0,0,0-5.842,0,3.982,3.982,0,0,0-1.215,2.921v6.618a4.148,4.148,0,0,0,4.136,4.136Z" transform="translate(-142.87)" fill="#84bd00"/>
      <path id="Path_557" data-name="Path 557" d="M87.732,182.97a.827.827,0,0,0-1.409.582v1.655a5.791,5.791,0,0,1-11.581,0v-1.655a.827.827,0,0,0-1.655,0v1.655A7.444,7.444,0,0,0,79.7,192.6v1.706H76.4a.827.827,0,0,0,0,1.655h8.272a.827.827,0,0,0,0-1.655H81.36V192.6a7.445,7.445,0,0,0,6.618-7.393v-1.655A.8.8,0,0,0,87.732,182.97Z" transform="translate(-73.087 -174.452)" fill="#84bd00"/>
    </g>
  </g>
</svg>
