<svg xmlns="http://www.w3.org/2000/svg" width="22.57" height="23.082" viewBox="0 0 22.57 23.082">
  <g id="shines" transform="translate(-5.679)">
    <g id="Group_19" data-name="Group 19" transform="translate(5.679)">
      <g id="Group_18" data-name="Group 18">
        <path id="Path_44092" data-name="Path 44092" d="M18.864,6.161A7.2,7.2,0,0,1,13.292.59a.742.742,0,0,0-1.452,0A7.2,7.2,0,0,1,6.269,6.161a.742.742,0,0,0,0,1.452,7.2,7.2,0,0,1,5.571,5.572.742.742,0,0,0,1.452,0,7.2,7.2,0,0,1,5.572-5.571.742.742,0,0,0,0-1.452Zm-6.3,4.629a8.7,8.7,0,0,0-3.9-3.9,8.7,8.7,0,0,0,3.9-3.9,8.7,8.7,0,0,0,3.9,3.9A8.7,8.7,0,0,0,12.566,10.79Z" transform="translate(-5.679)" fill="#84bd00"/>
      </g>
    </g>
    <g id="Group_21" data-name="Group 21" transform="translate(10.346 15.201)">
      <g id="Group_20" data-name="Group 20">
        <path id="Path_44093" data-name="Path 44093" d="M116.484,340.391a3.394,3.394,0,0,1-2.625-2.625.742.742,0,0,0-1.452,0,3.394,3.394,0,0,1-2.625,2.625.742.742,0,0,0,0,1.452,3.394,3.394,0,0,1,2.625,2.625.742.742,0,0,0,1.452,0,3.394,3.394,0,0,1,2.625-2.625.742.742,0,0,0,0-1.452Zm-3.351,2.052a4.887,4.887,0,0,0-1.326-1.326,4.887,4.887,0,0,0,1.326-1.326,4.887,4.887,0,0,0,1.326,1.326A4.886,4.886,0,0,0,113.133,342.443Z" transform="translate(-109.192 -337.176)" fill="#84bd00"/>
      </g>
    </g>
    <g id="Group_23" data-name="Group 23" transform="translate(18.522 7.409)">
      <g id="Group_22" data-name="Group 22">
        <path id="Path_44094" data-name="Path 44094" d="M299.685,168.489a4.587,4.587,0,0,1-3.548-3.548.742.742,0,0,0-1.452,0,4.587,4.587,0,0,1-3.548,3.548.742.742,0,0,0,0,1.452,4.587,4.587,0,0,1,3.548,3.548.742.742,0,0,0,1.452,0,4.587,4.587,0,0,1,3.548-3.548.742.742,0,0,0,0-1.452Zm-4.274,2.834a6.08,6.08,0,0,0-2.108-2.108,6.079,6.079,0,0,0,2.108-2.108,6.079,6.079,0,0,0,2.108,2.108A6.08,6.08,0,0,0,295.411,171.323Z" transform="translate(-290.547 -164.351)" fill="#84bd00"/>
      </g>
    </g>
  </g>
</svg>
