<svg id="translate" xmlns="http://www.w3.org/2000/svg" width="22" height="22" viewBox="0 0 22 22">
  <path id="Path_566" data-name="Path 566" d="M318.187,301.527c-.062-.207-.318-.3-.58-.3a.561.561,0,0,0-.573.3l-1.333,4.343a.4.4,0,0,0-.014.069c0,.221.324.373.566.373.152,0,.269-.048.3-.179l.262-.918H318.4l.263.918c.034.131.152.179.3.179.242,0,.566-.159.566-.373a.3.3,0,0,0-.014-.069Zm-1.181,2.982.6-2.119.6,2.119Zm0,0" transform="translate(-302.123 -288.28)" fill="#84bd00"/>
  <path id="Path_567" data-name="Path 567" d="M19.63,8.975h-6.6V6.154l2.146-1.533a.644.644,0,0,0,0-1.049L13,2.02A2.374,2.374,0,0,0,10.655,0H2.37A2.373,2.373,0,0,0,0,2.37v8.284a2.373,2.373,0,0,0,2.37,2.37h6.6v2.821L6.829,17.379a.644.644,0,0,0,0,1.049L9,19.98A2.374,2.374,0,0,0,11.345,22H19.63A2.373,2.373,0,0,0,22,19.63V11.345A2.373,2.373,0,0,0,19.63,8.975ZM2.37,11.736a1.083,1.083,0,0,1-1.081-1.081V2.37A1.083,1.083,0,0,1,2.37,1.289h8.284A1.083,1.083,0,0,1,11.736,2.37a.644.644,0,0,0,.27.525l1.682,1.2L12.006,5.3a.645.645,0,0,0-.27.525V8.975h-.391a2.373,2.373,0,0,0-2.37,2.37v.391Zm18.34,7.893a1.083,1.083,0,0,1-1.081,1.081H11.345a1.083,1.083,0,0,1-1.081-1.081.644.644,0,0,0-.27-.524L8.312,17.9l1.682-1.2a.645.645,0,0,0,.27-.525V11.345a1.083,1.083,0,0,1,1.081-1.081H19.63a1.083,1.083,0,0,1,1.081,1.081Zm0,0" fill="#84bd00"/>
  <path id="Path_568" data-name="Path 568" d="M101.344,94.329a.364.364,0,0,0,0-.727H99.727v-.883a.363.363,0,1,0-.727,0V93.6H97.383a.364.364,0,0,0,0,.727h.5a3.467,3.467,0,0,0,.909,2,2.736,2.736,0,0,1-1.41.39.363.363,0,0,0,0,.727,3.457,3.457,0,0,0,1.98-.621,3.458,3.458,0,0,0,1.98.621.363.363,0,0,0,0-.727,2.733,2.733,0,0,1-1.41-.39,3.467,3.467,0,0,0,.909-2Zm-1.98,1.544a2.745,2.745,0,0,1-.747-1.544h1.494A2.744,2.744,0,0,1,99.363,95.873Zm0,0" transform="translate(-92.851 -88.387)" fill="#84bd00"/>
</svg>
